<?xml version="1.0" encoding="UTF-8"?>
<svg width="91.639mm" height="40.98mm" version="1.1" viewBox="0 0 91.639 40.98" xmlns="http://www.w3.org/2000/svg">
<g transform="translate(-40.323 -58.49)" fill="#0059c3" fill-rule="evenodd" stroke-linecap="round">
<g transform="scale(1.026 .97468)" stroke-width="6.3021" style="paint-order:stroke fill markers" aria-label="world">
<path d="m56.622 92.58c0.19485 0.12178 0.2192 0.24356 0.24356 0.41405l0.58454 2.0459c0.12178 0.56019 0.26792 1.0473 0.36534 1.6075 0.09742 0.36534 0.09742 0.70632 0.2192 1.0717 0.17049 0.65761 0.34098 1.2665 0.43841 1.9485 0.02436 0.29227 0.14614 0.56018 0.2192 0.85246 0.17049 0.56019 0.29227 0.63326 0.85246 0.56019 0.24356-0.0487 0.48712-0.0731 0.75504-0.0731 0.41405 0 0.8281 0.0244 1.2909 0.0244 0.17049 0 0.29227 0.0244 0.46276 0.0487 0.56019 0.0974 1.1204 0.0731 1.6562-0.0974 0.29227-0.0974 0.46276-0.29227 0.51148-0.56019 0.07307-0.65761 0.24356-1.2665 0.41405-1.9241 0.12178-0.58454 0.2192-1.1691 0.3897-1.7293 0.09742-0.41405 0.24356-0.8281 0.41405-1.2178l0.63326-1.9485c0.2192-0.65761 0.46276-1.2422 0.65761-1.8998 0.17049-0.46276 0.26792-0.92553 0.34098-1.3639 0.09742-0.51148 0.12178-1.0473 0.19485-1.5588 0.12178-0.70632 0.19485-1.3883 0.36534-2.0946 0.07307-0.46276 0.14614-0.92553 0.14614-1.3883 0.02436-0.46276-0.19485-0.56019-0.56019-0.53583l-2.0215 0.07307c-0.56019 0.02436-1.096 0.12178-1.6562 0.19485-0.2192 0.02436-0.3897 0.14614-0.46276 0.3897-0.07307 0.26792-0.09742 0.53583-0.17049 0.80375-0.07307 0.36534-0.09742 0.73068-0.17049 1.096l-0.46276 2.192c-0.09742 0.48712-0.19485 0.92553-0.3897 1.3883-0.07307 0.17049-0.09742 0.29227-0.12178 0.36534l-0.36534 1.1204c-0.02436 0.09742-0.02436 0.2192-0.19485 0.29227l-0.14614-0.2192-0.2192-0.70632c-0.17049-0.51148-0.29227-1.023-0.48712-1.5101-0.19485-0.65761-0.36534-1.2422-0.48712-1.8998-0.17049-0.80375-0.43841-1.5588-0.80375-2.3138-0.12178-0.26792-0.24356-0.53583-0.41405-0.85246-0.09742-0.2192-0.26792-0.31663-0.53583-0.31663-0.19485 0-0.3897-0.02436-0.58454-0.02436-0.36534-0.02436-0.73068-0.07307-1.1204-0.07307-0.58454 0-1.1691 0.02436-1.7536 0.09742-0.19485 0-0.31663 0.09742-0.36534 0.31663-0.07307 0.19485-0.09742 0.3897-0.12178 0.58454-0.17049 0.75504-0.31663 1.4857-0.58454 2.2408-0.07307 0.17049-0.07307 0.29227-0.14614 0.46276l-0.51148 2.0946c-0.17049 0.68197-0.29227 1.3639-0.41405 2.0703-0.12178 0.51148-0.17049 1.023-0.34098 1.5101-0.07307 0.09742-0.07307 0.2192-0.19485 0.29227-0.07307-0.07307-0.12178-0.14614-0.14614-0.2192-0.07307-0.17049-0.09742-0.29227-0.12178-0.36534-0.09742-0.65761-0.17049-1.2665-0.34098-1.9241-0.26792-1.1447-0.43841-2.2895-0.6089-3.4586-0.07307-0.56019-0.19485-1.1447-0.29227-1.7049-0.02436-0.2192-0.04871-0.46276-0.12178-0.68197-0.04871-0.26792-0.19485-0.43841-0.46276-0.48712-0.26792-0.02436-0.53583-0.09742-0.80375-0.09742l-2.4112-0.04871c-0.31663 0-0.43841 0.14614-0.41405 0.43841 0 0.2192 0.02436 0.41405 0.04871 0.63326 0.07307 1.1447 0.26792 2.192 0.43841 3.3368 0.12178 0.94988 0.24356 1.8511 0.41405 2.8009 0.12178 0.87682 0.17049 1.7536 0.34098 2.6061 0.17049 1.0473 0.41405 1.9972 0.63326 3.0445 0.07307 0.36534 0.19485 0.70632 0.26792 1.0717 0.07307 0.36534 0.19485 0.75504 0.36534 1.1691 0.09742 0.24356 0.26792 0.36534 0.53583 0.34098 0.2192 0 0.41405-0.0243 0.63326-0.0243 0.3897 0 0.77939 0.0487 1.1691 0.0487 0.41405 0 0.85246-0.0244 1.2665-0.0244 0.58454 0.0244 1.1447-0.0731 1.7049-0.14613 0.31663-0.0731 0.46276-0.24356 0.56019-0.51148 0.3897-1.096 0.68197-2.2164 0.94988-3.3611 0.07307-0.26792 0.09742-0.43841 0.12178-0.70632 0.09742-0.77939 0.26792-1.5344 0.53583-2.3138l0.29227-0.97424c0.02436-0.07307 0.02436-0.17049 0.09742-0.29227z"/>
<path d="m69.19 93.992c0 0.36534-0.02436 0.65761 0 0.97424 0.07307 0.90117 0.26792 1.7536 0.63326 2.6061 0.36534 0.80375 0.75504 1.5344 1.4126 2.119 0.48712 0.46276 1.023 0.8281 1.5344 1.2422 0.90117 0.75503 1.9485 0.94988 3.0932 0.87681l1.5831-0.2192c0.85246-0.0974 1.4857-0.48712 2.1433-0.97424 0.58454-0.46277 1.2178-0.87682 1.7293-1.437l0.53583-0.58454c0.09742-0.12178 0.19485-0.24356 0.29227-0.41405 0.46276-0.65761 0.8281-1.3396 1.023-2.119 0.09742-0.46276 0.19485-0.92553 0.17049-1.4126 0-0.36534 0-0.73068 0.02436-1.1204 0.04871-0.70632-0.02436-1.4614-0.19485-2.2408-0.2192-0.94988-0.48712-1.8754-0.94988-2.7522-0.26792-0.48712-0.53583-0.97424-0.92553-1.3639-0.6089-0.6089-1.3152-1.096-2.0946-1.4614-0.6089-0.26792-1.1934-0.46276-1.8511-0.63326-0.26792-0.07307-0.48712-0.07307-0.70632-0.09742-0.36534 0-0.65761-0.02436-0.97424-0.02436-0.3897 0-0.77939-0.04871-1.1691 0.02436-0.51148 0.07307-1.0717 0.19485-1.6319 0.41405-0.8281 0.31663-1.4857 0.85246-1.9972 1.6562-0.3897 0.58454-0.65761 1.2178-0.92553 1.8998-0.31663 0.85246-0.53583 1.7293-0.65761 2.6792-0.07307 0.77939-0.04871 1.5831-0.12178 2.3625zm10.156-0.92553c-0.02436 0.65761-0.07307 1.2422-0.34098 1.8511-0.34098 0.75504-0.8281 1.3639-1.4857 1.8267-0.36534 0.29227-0.77939 0.36534-1.2422 0.43841-0.65761 0.12178-1.1691-0.12178-1.7293-0.43841-0.75504-0.43841-1.2665-1.096-1.5101-1.9485-0.17049-0.41405-0.26792-0.85246-0.26792-1.3152-0.02436-0.2192 0-0.41405 0.02436-0.63326 0.12178-0.85246 0.46276-1.6562 0.8281-2.4112 0.31663-0.6089 0.77939-1.0473 1.4126-1.3639 0.19485-0.07307 0.3897-0.09742 0.58454-0.17049 0.26792-0.04871 0.51148-0.07307 0.77939-0.07307 0.17049-0.02436 0.29227 0 0.46276 0.02436 1.1447 0.34098 1.8998 1.096 2.2164 2.2895l0.19485 0.94988c0.07307 0.31663 0.04871 0.65761 0.07307 0.97424z"/>
<path d="m89.138 96.72c0-0.17049-0.04871-0.29227 0.12178-0.36534s0.24356 0.07307 0.36534 0.17049l0.68197 0.6089c0.26792 0.26792 0.53583 0.46276 0.80375 0.73068 0.46276 0.48712 0.90117 0.9986 1.3152 1.4857 0.56019 0.65761 1.023 1.2665 1.5831 1.9241 0.12178 0.17049 0.29227 0.26792 0.46276 0.24356 0.09742 0 0.19485-0.0244 0.29227-0.0244l1.4857-0.2192c0.48712-0.0731 0.97424-0.14614 1.4614-0.24356l0.68197-0.19485c0.2192-0.0974 0.24356-0.24356 0.12178-0.46276l-0.07307-0.0974c-0.46276-0.48712-0.87682-1.0229-1.3396-1.4857s-0.97424-0.85246-1.437-1.3152c-0.36534-0.29227-0.70632-0.6089-1.023-0.92553l-0.75504-0.80375c-0.29227-0.29227-0.29227-0.3897 0.12178-0.56019 0.53583-0.17049 0.97424-0.46276 1.2909-0.8281 1.0473-1.1447 1.6806-2.46 1.778-4.0187 0.07307-0.87682-0.14614-1.7293-0.43841-2.533-0.29227-0.75504-0.75504-1.3883-1.3883-1.9241-0.19485-0.17049-0.41405-0.26792-0.68197-0.34098-0.56019-0.17049-1.096-0.24356-1.6562-0.31663-0.85246-0.12178-1.6075-0.14614-2.46-0.17049-0.31663-0.02436-0.6089 0-0.97424-0.02436-0.19485 0-0.41405-0.02436-0.6089-0.02436l-2.2408 0.19485c-0.41405 0.04871-0.80375 0.14614-1.1691 0.31663-0.19485 0.07307-0.29227 0.2192-0.31663 0.3897-0.02436 0.12178-0.04871 0.2192-0.04871 0.34098-0.02436 0.46276-0.04871 0.87682-0.04871 1.3396l-0.04871 2.7279v0.2192c-0.07307 1.2422-0.04871 2.5087 0.02436 3.7752 0.02436 0.19485 0.04871 0.3897 0.04871 0.58454 0 0.29227 0.02436 0.56019 0 0.85246-0.07307 0.70632-0.09742 1.4126-0.09742 2.1677 0 0.31663 0 0.65761 0.02436 0.97424 0.02436 0.65761 0.02436 1.2665 0.09742 1.9241 0.02436 0.41405 0.14614 0.51147 0.53583 0.51147 0.41405 0 0.85246-0.0243 1.2665-0.0487 0.2192 0 0.43841-0.0244 0.65761-0.0244 0.26792-0.0244 0.53583 0 0.80375-0.0244 0.12178 0 0.24356 0.0244 0.36534 0 0.26792-0.0244 0.41405-0.19485 0.41405-0.46277 0.02436-0.17049 0.02436-0.26791 0.02436-0.4384 0-0.3897 0.02436-0.7794 0.02436-1.1447 0-0.58454-0.04871-1.1204-0.04871-1.5831zm1.3396-7.9644c0.36534 0.02436 0.68197 0.02436 0.97424 0.09742 0.51148 0.09742 0.90117 0.41405 1.1447 0.92553 0.31663 0.68197 0.31663 1.3883 0 2.0946-0.17049 0.36534-0.3897 0.6089-0.65761 0.80375-0.65761 0.53583-1.3883 0.87682-2.1677 1.023-0.07307 0-0.04871 0.02436-0.12178 0.02436-0.31663 0.02436-0.41405-0.04871-0.41405-0.36534v-3.9457c-0.02436-0.26792 0.09742-0.43841 0.36534-0.51148 0.31663-0.07307 0.6089-0.12178 0.87682-0.14614z"/>
<path d="m106.09 100.84c0.48712 0 0.97424 0.0244 1.4614-0.0487 0.41406-0.0244 0.80375-0.0731 1.1934-0.14614 0.29227-0.0487 0.43841-0.24356 0.43841-0.56018 0-0.29228 0.0243-0.6089-0.0487-0.90118-0.0731-0.56019-0.14613-1.096-0.24356-1.6562-0.0243-0.26792-0.19484-0.36534-0.46276-0.3897-0.41405-0.07307-0.85246-0.07307-1.2665-0.14614-0.80375-0.12178-1.5831-0.29227-2.4356-0.31663-0.0731 0-0.14614 0-0.17049-0.02436-0.12178-0.02436-0.19485-0.09742-0.21921-0.24356-0.0243-0.04871-0.0243-0.12178-0.0243-0.24356 0-0.26792 0.0243-0.51148 0-0.73068-0.0731-0.65761 0-1.2422 0.0243-1.8998l0.0731-1.5101c0.0244-0.17049 0.0244-0.34098 0.0244-0.53583l0.0731-1.7293c0.0244-0.46276 0-0.87682 0.0731-1.2909 0.0731-0.97424 0.19485-1.9485 0.29227-2.9227 0.0244-0.36534-0.0731-0.46276-0.4384-0.48712l-1.2665-0.09742c-0.17049 0-0.36534-0.02436-0.53583 0-0.36534 0.07307-0.68197 0.09742-1.0473 0.17049-0.19484 0.02436-0.36534 0.04871-0.56018 0.12178-0.31663 0.04871-0.51148 0.24356-0.58455 0.58454 0 0.07307-0.0243 0.07307-0.0243 0.14614-0.0731 0.56019-0.0974 1.023-0.12178 1.5831-0.0244 0.56019-0.0244 1.0473-0.0244 1.6075l-0.0487 0.94988c-0.0244 0.56019-0.0244 1.0473-0.0974 1.5588v0.68197c-0.0244 0.77939-0.0487 1.5344-0.0487 2.3138 0 0.56019 0.0244 1.0717 0.0487 1.6319 0 0.56019 0.0244 1.1204 0.0487 1.6806l0.0974 1.0717v1.1204l0.0487 0.29227c0.0487 0.19485 0.17049 0.29227 0.36534 0.31663 0.12178 0 0.19485 0 0.26792-0.0244h0.53583c0.3897 0 0.77939 0.0487 1.1447 0.0244 0.56019-0.0731 1.096 0 1.6562 0.0731 0.0974 0 0.19485 0.0243 0.29227 0.0243 0.51148-0.0243 0.9986-0.0487 1.5101-0.0487z"/>
<path d="m115.13 84.055c-1.1447-0.07307-2.119 0.09742-3.0688 0.36534-0.26792 0.07307-0.48712 0.14614-0.75504 0.24356-0.31663 0.09742-0.46276 0.29227-0.48712 0.6089-0.0731 0.6089-0.0731 1.1934-0.14613 1.8023-0.0731 0.77939-0.0974 1.5831-0.1705 2.3869-0.0731 0.75504-0.12178 1.4857-0.0974 2.2408v0.14614c-0.0244 0.48712-0.0731 0.97424-0.0731 1.4614 0 0.68197 0.0244 1.3639 0.0487 2.0215 0.0244 0.46276 0.0244 0.94988 0.0974 1.4126 0.12178 0.85246 0.24356 1.7049 0.34098 2.5574 0.0731 0.65761 0.14614 1.2422 0.31663 1.8998 0.0731 0.17049 0.0731 0.31663 0.14614 0.48712 0.0974 0.29227 0.24356 0.36534 0.53583 0.36534s0.58454 0 0.90117-0.0243c0.29227 0 0.58454-0.0244 0.90117-0.0244 0.68197-0.0731 1.3396-0.17049 1.9972-0.34098 0.56019-0.12178 1.0473-0.21921 1.5101-0.48712 0.68196-0.36534 1.3639-0.68197 1.9241-1.2422 0.70632-0.65761 1.4126-1.2909 1.8023-2.192 0.0244-0.07307 0.0731-0.12178 0.0974-0.14614 0.31663-0.48712 0.51147-1.023 0.73068-1.5344 0.19485-0.51148 0.36534-1.023 0.43841-1.5831 0.0731-0.36534 0.0974-0.70632 0.19484-1.0717 0.0731-0.41405 0.12178-0.8281 0.14614-1.2422 0.0487-1.0473-0.0731-2.0459-0.3897-2.9958-0.19484-0.6089-0.51147-1.1691-0.8281-1.7293-0.26792-0.48712-0.56019-0.97424-0.94988-1.437-0.41406-0.46276-0.90118-0.85246-1.4614-1.1447-0.31663-0.19485-0.70633-0.29227-1.0717-0.3897-0.90117-0.26792-1.8267-0.48712-2.6304-0.41405zm-0.99859 6.1134c-0.0244-0.29227-0.0487-0.58454-0.0487-0.85246v-0.04871c-0.0244-0.46276 0.0974-0.58454 0.51147-0.68197 0.65761-0.09742 1.2178 0 1.8024 0.2192 0.36534 0.12178 0.65761 0.29227 1.023 0.46276 0.17049 0.07307 0.26791 0.19485 0.38969 0.29227 0.51148 0.51148 0.82811 1.1447 1.0473 1.8511 0.0731 0.19485 0.0974 0.3897 0.17049 0.58454 0.12178 0.26792 0.14614 0.6089 0.12178 1.023-0.12178 0.9986-0.51147 1.9241-1.1691 2.7279-0.29228 0.36534-0.65762 0.56019-1.0717 0.73068l-0.68197 0.26792c-0.46276 0.17049-0.92552 0.19485-1.4126 0.26792-0.19485 0.02436-0.31663-0.07307-0.36534-0.26792l-0.0731-0.43841c-0.0731-0.68197-0.14614-1.3639-0.17049-2.0703 0-0.90117-0.0244-1.8023-0.0974-2.6792h0.0244z"/>
</g>
</g>
<g transform="translate(6.0834 -1.7488)" fill="#0059c3" fill-rule="evenodd" stroke-linecap="round" stroke-width="0" style="paint-order:stroke fill markers" aria-label="FINTECH">
<path d="m-4.1964 3.1048h-0.87174c-0.45202 0.032287-0.67802 0.25829-0.67802 0.64574-0.09686 0.77488-0.09686 1.5175-0.12915 2.2924-0.09686 0.90403-0.09686 1.8081-0.12915 2.7121-0.032287 0.80717-0.064574 1.6143-0.064574 2.4861-0.032287 0.7426 0 1.4206 0 2.1632v3.8421c0.032287 0.90403 0.09686 1.8081 0.09686 2.7444l0.064574 2.8412v0.12915c0.032287 0.22601 0.16143 0.38744 0.41973 0.45202 0.064574 0.03229 0.19372 0.03229 0.35515 0.03229h1.1946c0.80717 0.03229 1.6143 0.06457 2.4215 0.06457 0.19372 0 0.32287 0 0.41973-0.03229 0.25829-0.06457 0.38744-0.19372 0.38744-0.41973 0.032287-0.22601 0.032287-0.38744 0.032287-0.61345-0.09686-0.4843-0.12915-1.0009-0.16143-1.4852l-0.09686-2.2601v-0.19372c-0.09686-0.4843-0.12915-0.90403-0.16143-1.3883-0.032287-0.29058 0.09686-0.45202 0.38744-0.4843 0.22601-0.03229 0.41973-0.03229 0.64574-0.03229l2.5184-0.12914c0.61345 0 0.77488-0.16143 0.77488-0.77488l-0.09686-2.5507c0-0.61345-0.16143-0.71031-0.71031-0.80717h-0.12915c-0.29058 0-0.58116 0-0.83946-0.03229-0.61345-0.03229-1.1623-0.09686-1.7758 0-0.12915 0.03229-0.25829 0.03229-0.35515 0-0.16143 0-0.25829-0.06457-0.29058-0.19372l-0.09686-0.35516c0-0.35516-0.032287-0.67802-0.064574-1.0332 0-0.67802-0.032287-1.356-0.064574-2.0341 0-0.41973 0.12915-0.51659 0.54888-0.61345 0.29058-0.032287 0.61345-0.064574 0.90403-0.064574h1.8726c0.22601 0 0.41973-0.032287 0.64574-0.032287 0.51659 0.032287 0.71031-0.064574 0.80717-0.58116v-0.226c0.032287-0.80717 0.032287-1.6143 0.032287-2.4215v-0.19372c0.09686-0.35515 0-0.64574-0.09686-1.0009-0.096861-0.35515-0.32287-0.51659-0.61345-0.51659l-2.1955-0.12915h-1.4529c-0.4843 0-0.93632 0.032287-1.4206 0.064574-0.67802 0.032287-1.356 0.09686-2.0341 0.19372z"/>
<path d="m4.7667 22.541v0.61345c0.032287 0.35516 0.19372 0.51659 0.54888 0.51659 0.16143 0 0.29058 0 0.38744-0.03229 0.4843-0.03229 0.93632-0.12915 1.4206-0.16143 0.7426-0.09686 1.3883-0.03229 2.1309-0.12915 0.51659-0.03229 0.80717-0.32287 0.83946-0.87174l0.06457-1.1623 0.09686-3.035v-0.2583c0.09686-0.93632 0.12915-1.8403 0.22601-2.7767 0.03229-0.38744 0-0.77488 0.03229-1.1946l0.09686-2.5184c0-0.4843 0-0.90403 0.03229-1.3238 0.09686-1.0009 0.12915-2.0018 0.22601-3.035 0.03229-0.64574 0.06457-1.3238 0.16143-1.9695 0.09686-0.7426 0.06457-1.4852-0.03229-2.2278-0.03229-0.25829-0.19372-0.41973-0.4843-0.4843-0.12915-0.032287-0.25829-0.064574-0.35516-0.064574-0.25829 0.032287-0.54888 0.064574-0.83946 0.064574-0.54888 0.09686-1.0978 0.064574-1.6466 0.16143-0.4843 0.032287-0.90403 0.12915-1.3238 0.16143-0.51659 0.09686-0.67802 0.22601-0.77488 0.71031-0.032287 0.25829-0.064574 0.51659-0.064574 0.77488l-0.09686 3.035v0.32287c-0.096857 0.51659-0.12914 1.0332-0.16143 1.5498l-0.064574 1.6466-0.19372 3.2933-0.09686 1.8403-0.09686 1.8726v2.2278c-0.032287 0.4843-0.064574 0.93632-0.064574 1.4206 0 0.35516 0.032287 0.67802 0.064574 1.0332z"/>
<path d="m18.25 12.339c0.29058 0.12915 0.35516 0.32287 0.45202 0.54888 0.61345 1.2915 1.0978 2.5829 1.7112 3.8744l1.1623 2.809c0.4843 1.1623 0.93632 2.3569 1.4206 3.5515 0.25829 0.61345 0.51659 0.67802 1.1623 0.64574 0.03229 0 0.03229-0.03229 0.06457-0.03229l1.9049-0.12915c0.35516-0.03229 0.67802 0 1.0332-0.03229l1.9049-0.25829c0.25829-0.03229 0.41973-0.16143 0.4843-0.45202 0-0.09686 0.03229-0.22601 0.03229-0.35516 0-0.4843-0.03229-0.9686-0.03229-1.4529l-0.12915-2.3892c-0.03229-1.0009-0.06457-1.8726-0.06457-2.8735 0-0.93632 0-1.9049-0.03229-2.8412 0-0.7426-0.03229-1.3883-0.03229-2.1309l-0.06457-2.809-0.09686-1.8403c-0.09686-0.77488-0.06457-1.5821-0.16143-2.3569 0-0.16143 0-0.32287-0.03229-0.54888-0.03229-0.29058-0.19372-0.45202-0.51659-0.51659-0.35516-0.032287-0.67802 0.032287-1.0332 0.064574-0.38744 0.032287-0.7426 0.064574-1.0978 0.064574-0.2583 0.032287-0.4843-0.032287-0.7426-0.032287-0.38744 0-0.58116 0.19372-0.61345 0.58116 0 0.4843-0.03229 0.93632-0.06457 1.4206l-0.12915 2.6152-0.06457 1.5821c0 0.80717-0.03229 1.6143-0.06457 2.4861v1.4852l-0.06457 0.51659c-0.03229 0.12915-0.03229 0.2583-0.19372 0.35516-0.09686-0.09686-0.16143-0.19372-0.19372-0.29058-0.41974-0.87174-0.77489-1.7435-1.13-2.5507-0.61345-1.4529-1.2592-2.809-2.0664-4.1973-0.29058-0.4843-0.51659-0.93632-0.7426-1.4206-0.09686-0.22601-0.12915-0.45202-0.22601-0.67802-0.12915-0.38744-0.38744-0.61345-0.7426-0.67802-0.12915-0.032287-0.22601-0.064574-0.29058-0.064574-0.38744-0.09686-0.77488-0.09686-1.1623-0.12915-0.51659-0.09686-1.0332-0.09686-1.5498-0.19372-0.61345-0.09686-1.13-0.064574-1.7435-0.032287-0.51659 0.032287-0.64574 0.22601-0.7426 0.7426-0.03229 0.51659-0.06457 1.0332-0.16143 1.5498l-0.19372 2.4215c-0.09686 0.4843-0.06457 0.9686-0.09686 1.4852-0.03229 0.54888-0.12915 1.0978-0.16143 1.6466-0.09686 0.7426-0.12915 1.4529-0.16143 2.1955-0.09686 0.61345-0.09686 1.2592-0.12915 1.8726l-0.09686 1.2269c-0.09686 0.7426-0.12915 1.4206-0.12915 2.1632-0.09686 1.0009-0.06457 2.0018-0.09686 3.035-0.03229 0.35516-0.06457 0.7426-0.06457 1.13 0 0.32287 0.12915 0.4843 0.41973 0.51659 0.64574 0.12915 1.2915 0.22601 1.9372 0.12915 0.35515-0.03229 0.67802-0.03229 1.0332 0 0.41973 0 0.80717 0.03229 1.2269 0 0.32287 0 0.4843-0.16143 0.4843-0.51659 0.03229-0.22601 0.03229-0.38744 0.03229-0.61345 0-1.0009-0.03229-1.9695 0.09686-2.9704 0.09686-0.7426 0.09686-1.4206 0.19372-2.1632l0.12915-1.0009 0.09686-2.0018c0-0.22601 0.03229-0.38744 0.03229-0.61345 0-0.29058-0.03229-0.58116-0.03229-0.83946z"/>
<path d="m39.999 23.736c0.29058 0 0.54888-0.03229 0.80717-0.06457 0.2583-0.03229 0.41973-0.19372 0.45202-0.41973 0.03229-0.12915 0.06457-0.22601 0.06457-0.32287l-0.06457-1.5821-0.09686-1.7435c-0.09686-0.61345-0.03229-1.1623-0.12915-1.7758l-0.12915-1.9695c-0.09686-0.61345-0.09686-1.0978-0.12915-1.7112-0.03229-0.41973 0-0.83946 0-1.2592 0-0.35516 0.03229-0.61345 0-0.90403-0.09686-1.0009-0.22601-1.9049-0.35516-2.9058l-0.12915-1.0332c-0.03229-0.4843 0.06457-0.64574 0.54888-0.7426 0-0.032287 0.03229-0.032287 0.06457-0.032287 0.93632-0.16143 1.8726-0.35515 2.8735-0.32287 0.41973 0 0.61345-0.19372 0.58116-0.61345 0-0.54888-0.03229-1.0978-0.09686-1.6466-0.03229-0.7426-0.06457-1.4852-0.16143-2.2278 0-0.09686-0.03229-0.16143-0.03229-0.25829-0.09686-0.35515-0.16143-0.41973-0.51659-0.45202-0.29058 0-0.58116 0-0.87174 0.032287l-1.8081 0.09686c-0.77488 0.09686-1.5498 0.09686-2.2924 0.19372-1.2592 0.16143-2.4538 0.32287-3.713 0.29058-0.61345 0-1.1946 0.064574-1.8081 0.16143-0.35516 0.032287-0.61345 0.064574-0.9686 0.064574-0.16143 0-0.32287-0.032287-0.54888-0.032287-0.19372 0-0.32287 0.09686-0.38744 0.29058l-0.06457 0.32287-0.25829 2.1955c-0.06457 0.32287-0.09686 0.64574-0.09686 0.9686-0.03229 0.29058 0.12915 0.4843 0.45202 0.54888 1.0009 0.16143 2.0341 0.29058 3.035 0.29058 0.61345 0 0.7426 0.09686 0.7426 0.71031v0.9686c0 0.4843 0.03229 0.93632 0.03229 1.4206-0.03229 1.0009-0.03229 2.0018 0.06457 3.0027l0.09686 2.7121c0.03229 0.09686 0.03229 0.25829 0.03229 0.41973l0.09686 2.6152c0.03229 0.54888 0.06457 1.13 0.06457 1.6789 0.09686 0.77488 0.09686 1.5498 0.12915 2.3246 0.03229 0.35515 0.19372 0.54888 0.54888 0.64574 0.06457 0 0.09686 0 0.12915 0.03229l1.7435 0.12915z"/>
<path d="m46.198 20.959 0.09686 1.4206c0.03229 0.29058 0.22601 0.4843 0.58116 0.51659l1.9695 0.06457c0.25829 0 0.4843-0.03229 0.71031 0l3.0027 0.29058c0.90403 0.09686 1.8081 0.06457 2.7121 0.09686 0.41973 0 0.61345-0.22601 0.61345-0.64574v-0.19372l-0.06457-3.4547v-0.03229c-0.03229-0.45201-0.2583-0.67802-0.67802-0.67802l-1.4852-0.06457c-0.54888 0-1.13-0.03229-1.6789-0.06457-0.29058 0-0.45202-0.16143-0.4843-0.4843-0.03229-0.06457-0.03229-0.19372-0.03229-0.35516l-0.12915-2.0341c0-0.4843 0.09686-0.61345 0.58116-0.64574 0.29058-0.03229 0.54888-0.03229 0.83946-0.03229 0.54888-0.03229 1.13-0.03229 1.6789-0.12915 0.41973-0.03229 0.83946-0.03229 1.2269-0.12915 0.29058-0.03229 0.45202-0.19372 0.45202-0.54888v-0.45202c-0.03229-0.7426-0.06457-1.5175-0.16143-2.2924-0.03229-0.35516-0.19372-0.58116-0.54888-0.64574-0.35515-0.09686-0.67802-0.06457-1.0332-0.09686-0.61345-0.09686-1.2269-0.16143-1.8403-0.03229-0.29058 0.06457-0.4843-0.06457-0.54888-0.38744l-0.06457-0.22601-0.09686-0.9686c0-0.29058-0.03229-0.58116-0.03229-0.87174 0-0.22601 0.09686-0.38744 0.32287-0.45202 0.61345-0.16143 1.1946-0.25829 1.7435-0.22601 0.54888 0.064574 1.1623 0.032287 1.7758-0.064574 0.35516-0.064574 0.54888-0.29058 0.54888-0.67802 0-1.13-0.03229-2.1955-0.03229-3.3255v-0.12915c-0.03228-0.22601-0.19372-0.38744-0.45201-0.41973-0.61345 0-1.2269-0.032287-1.8403-0.032287-0.41973-0.032287-0.80717 0.032287-1.2269 0.032287-0.4843 0-0.90403-0.032287-1.3883-0.064574h-0.41973c-0.38744-0.064574-0.77488-0.09686-1.13-0.09686-0.64574 0-1.2915-0.032287-1.9049 0.064574-0.38744 0-0.61345 0.19372-0.71031 0.61345l-0.06457 0.25829-0.09686 1.7112c-0.09686 0.61345-0.06457 1.1946-0.09686 1.8081-0.09686 0.7426-0.09686 1.4206-0.12915 2.1632l-0.06457 1.4206c-0.03229 0.4843-0.09686 0.90403-0.09686 1.3883-0.03229 0.80717-0.06457 1.5821-0.06457 2.3892-0.03229 0.22601 0 0.45202 0 0.67802-0.09686 0.7426-0.12915 1.356-0.12915 2.0986l-0.09686 3.939z"/>
<path d="m62.567 12.791c0.03229-0.41973 0-0.83946 0.09686-1.2592 0.12915-1.0655 0.71031-1.8081 1.7758-2.2924 0.29058-0.12915 0.58116-0.25829 0.87174-0.35515 0.54888-0.22601 1.0978-0.29058 1.7112-0.25829 0.29058 0.032287 0.54888 0.032287 0.80717 0 0.4843-0.09686 0.54888-0.12915 0.64574-0.61345 0.12915-0.80717 0.2583-1.6143 0.35516-2.4861 0.09686-0.41973 0.09686-0.83946 0.12915-1.2592 0.03229-0.22601-0.06457-0.45202-0.25829-0.61345-0.29058-0.22601-0.58116-0.32287-0.93632-0.41973-0.64574-0.12915-1.2592 0-1.8726 0.032287-0.67802 0.032287-1.2592 0.25829-1.8726 0.51659-1.2592 0.4843-2.3246 1.1623-3.1964 2.1955l-0.67802 0.83946c-0.87174 1.2592-1.3238 2.6475-1.7112 4.0681-0.22601 0.7426-0.22601 1.4529-0.32287 2.1955-0.09686 0.61345-0.12915 1.2592-0.09686 1.8726 0.09686 0.87174 0.19372 1.6789 0.41973 2.4861 0.2583 1.13 0.77488 2.1309 1.5175 3.0672 0.41973 0.4843 0.83946 0.93632 1.3883 1.2269 0.61345 0.35515 1.1946 0.67802 1.8081 0.9686 0.90403 0.4843 1.8726 0.64574 2.8735 0.77488 0.64574 0.09686 1.3238 0.12915 1.9695 0.16143 0.54888 0.03229 0.7426-0.19372 0.77488-0.61345 0.03229-0.09686 0.03229-0.22601 0.03229-0.38744 0-0.87174 0-1.6466-0.03229-2.5184 0-0.22601 0.03229-0.38744 0.03229-0.61345 0.06457-0.41973-0.09686-0.64574-0.51659-0.7426-0.61345-0.12915-1.2592-0.22601-1.8726-0.32287-0.4843-0.06457-1.0009-0.2583-1.5175-0.54888-0.4843-0.29058-0.90403-0.67802-1.1946-1.1623-0.77488-1.1946-1.2269-2.4861-1.13-3.939z"/>
<path d="m80.938 2.9111c-0.32287 0-0.51659 0.16143-0.58116 0.51659v0.22601c0.03229 0.4843 0.06457 1.0009 0.06457 1.4852-0.03229 0.67802-0.12915 1.3238-0.12915 1.9695 0 1.2592-0.22601 2.3892-0.25829 3.6484 0 0.22601-0.12915 0.35516-0.38744 0.41973h-0.29058c-0.67802-0.09686-1.356-0.16143-2.0341-0.06457-0.29058 0.03229-0.41973-0.12915-0.41973-0.41973 0-0.54888-0.03229-1.0978 0.06457-1.6466 0.09686-1.2592 0.22601-2.3892 0.35516-3.6484 0.09686-0.64574 0.09686-1.3238 0.12915-1.9695 0-0.38744-0.19372-0.61345-0.58116-0.64574-0.38744 0-0.77488-0.032287-1.1623-0.064574-0.22601 0-0.45202 0-0.67802-0.032287l-1.8081-0.09686c-0.32287 0-0.51659 0.12915-0.61345 0.41973-0.12915 0.38744-0.29058 0.77488-0.29058 1.1946 0 0.29058-0.03229 0.61345-0.03229 0.90403l-0.12915 1.5498c-0.09686 0.87174-0.06457 1.6789-0.16143 2.5507-0.03229 0.87174-0.06457 1.7112-0.16143 2.5829l-0.06457 1.7758-0.2583 3.1641-0.25829 3.3901c-0.03229 0.38744-0.06457 0.7426-0.06457 1.0978 0 0.61345 0.03229 1.0978 0.03229 1.7112 0 0.09686 0 0.19372 0.03229 0.22601 0.03229 0.29058 0.19372 0.41973 0.45202 0.41973 0.12915 0 0.29058 0 0.41973-0.03229 0.7426-0.09686 1.356-0.16143 2.0986-0.12915h1.2592c0.41973 0 0.61345-0.19372 0.61345-0.61345 0-0.22601 0-0.41973 0.03229-0.51659l0.09686-2.5184c0.03229-0.51659 0.06457-1.0332 0.06457-1.5498 0-0.64574-0.06457-1.3238-0.06457-2.0018 0-0.41973 0.12915-0.54888 0.54888-0.64574 0.87174-0.12915 1.6143-0.16143 2.4861-0.12915 0.22601 0 0.38744 0.12915 0.41973 0.38744 0.03229 0.22601 0.03229 0.35516 0.03229 0.58116 0 0.51659-0.06457 1.0332-0.06457 1.5498 0 0.54888 0.03229 1.0655 0.03229 1.6143 0.03229 1.2592 0.06457 2.5507 0.06457 3.8421 0 0.09686 0.03229 0.12915 0.03229 0.22601 0.03229 0.32287 0.19372 0.4843 0.51659 0.4843 0.51659 0 1.0332 0 1.5175-0.03229 0.38744 0 0.7426-0.03229 1.13-0.03229 0.38744 0 0.80717 0.03229 1.1946 0.03229 0.29058 0 0.4843-0.16143 0.58116-0.4843 0.03229-0.06457 0.03229-0.16143 0.03229-0.25829l0.09686-1.5821c0-0.54888 0-1.0655 0.03229-1.5821 0.03229-1.0332 0.03229-2.0341 0.12915-3.0672 0.03229-0.38744 0-0.77488 0.03229-1.1623 0.03229-0.87174 0.06457-1.7758 0.16143-2.6475 0-0.38744 0-0.77488 0.03229-1.1623 0.03229-0.90403 0.12915-1.7758 0.16143-2.6798l0.12915-3.7776c0-0.67802 0-1.3238 0.03229-1.9695 0-0.4843-0.12915-0.77488-0.77488-0.80717h-1.9372z"/>
</g>
</svg>
