<?xml version="1.0" encoding="UTF-8"?>
<svg width="196.91mm" height="72.718mm" version="1.1" viewBox="0 0 196.91 72.718" xml:space="preserve" xmlns="http://www.w3.org/2000/svg"><g transform="translate(-3.6051 -98.239)"><rect x="3.6051" y="98.239" width="196.91" height="72.718" ry="12.923" fill="#0f0f0f" fill-rule="evenodd" stroke-linecap="square" stroke-width="6.2494" style="paint-order:stroke fill markers"/><g transform="matrix(.061657 0 0 .061657 28.234 114.52)">
	<rect x="364" y="66.1" width="270.4" height="485.8" fill="#ff5a00"/>
	<path d="m382 309c0-98.7 46.4-186.3 117.6-242.9-52.4-41.2-118.5-66.1-190.6-66.1-170.8 0-309 138.2-309 309s138.2 309 309 309c72.1 0 138.2-24.9 190.6-66.1-71.3-55.8-117.6-144.2-117.6-242.9z" fill="#eb001b"/>
	<path d="m999.2 309c0 170.8-138.2 309-309 309-72.1 0-138.2-24.9-190.6-66.1 72.1-56.7 117.6-144.2 117.6-242.9s-46.4-186.3-117.6-242.9c52.3-41.2 118.4-66.1 190.5-66.1 170.9 0 309.1 139.1 309.1 309z" fill="#f79e1b"/>
</g><g fill="#fff" fill-rule="evenodd" stroke-linecap="square" stroke-width="9.454" style="paint-order:stroke fill markers" aria-label="8920"><path d="m111.82 146.52c4.925 0 8.4032-2.6472 8.4032-6.4178 0-2.8164-1.9854-5.0942-4.9403-5.7099v-0.077c2.4625-0.70796 4.0323-2.6164 4.0323-4.9711 0-3.4013-3.1243-5.8638-7.4952-5.8638-4.3555 0-7.5106 2.4779-7.5106 5.8484 0 2.3855 1.5852 4.3093 4.0477 4.9865v0.077c-2.9396 0.61562-4.9403 2.878-4.9403 5.7099 0 3.7553 3.4475 6.4178 8.4032 6.4178zm0-2.7703c-2.8318 0-4.848-1.6314-4.848-3.8938 0-2.2778 2.0162-3.9246 4.848-3.9246s4.8326 1.6314 4.8326 3.9246c0 2.2624-2.0008 3.8938-4.8326 3.8938zm0-10.589c-2.4163 0-4.0939-1.4467-4.0939-3.4629 0-2.0315 1.6776-3.4782 4.0939-3.4782 2.4009 0 4.0939 1.4467 4.0939 3.4782 0 2.0162-1.7084 3.4629-4.0939 3.4629z"/><path d="m130.73 146.52c5.5714 0 8.8649-4.4017 8.8649-11.835 0-2.601-0.46171-4.7864-1.3698-6.5564-1.4313-2.9858-4.0785-4.6633-7.372-4.6633-4.6941 0-8.1108 3.232-8.1108 7.6798 0 4.217 3.155 7.3412 7.372 7.3412 2.8626 0 5.202-1.4467 6.0946-3.6322h0.0154 0.0154 0.0308c0 5.6021-2.0315 8.8034-5.4944 8.8034-2.0469 0-3.7399-1.2158-4.2632-3.0319h-3.4629c0.66179 3.5244 3.7245 5.8946 7.6798 5.8946zm0.12312-10.85c-2.6933 0-4.6787-1.97-4.6787-4.6325 0-2.5856 2.0777-4.6325 4.7249-4.6325s4.7095 2.0623 4.7095 4.6941c0 2.6164-2.0315 4.571-4.7557 4.571z"/><path d="m142.24 130.4v0.0308h3.2628v-0.0462c0-2.3086 1.8315-4.0631 4.2632-4.0631 2.3086 0 4.0939 1.5698 4.0939 3.5398 0 1.7391-0.70796 2.9088-3.4167 5.7252l-8.0184 8.1724v2.3394h15.19v-2.9088h-10.542v-0.0769l5.556-5.5868c3.2474-3.3243 4.6325-5.2482 4.6325-7.8338 0-3.5244-3.155-6.2178-7.3874-6.2178-4.4171 0-7.6337 2.9242-7.6337 6.9257z"/><path d="m168.78 146.52c5.3251 0 8.4494-4.4786 8.4494-11.558 0-7.0334-3.1397-11.481-8.4494-11.481-5.2943 0-8.4802 4.4632-8.4802 11.497 0 7.0796 3.155 11.543 8.4802 11.543zm0-2.8934c-3.1704 0-4.9865-3.2936-4.9865-8.6494 0-5.2789 1.8469-8.6033 4.9865-8.6033s4.9711 3.309 4.9711 8.6033c0 5.3713-1.8007 8.6494-4.9711 8.6494z"/></g></g><style type="text/css">
	.st0{fill:#5F6368;}
	.st1{fill:#4285F4;}
	.st2{fill:#34A853;}
	.st3{fill:#FBBC04;}
	.st4{fill:#EA4335;}
</style></svg>
